# xmcd
# 
# Track frame offsets:
#     150
#     28330
#     91455
#     136506
#     156302
#     215927
#     235219
#     239981
#     289259
#     328538
# 
# Disc length: 4657
# 
# Revision: 1
# Processed by: cddbd v1.5.2PL0 Copyright (c) Steve Scherf et al.
# Submitted via: fre:ac v1.0.31
# 
DISCID=9b122f0a
DTITLE=Mike Bloomfield - Blues At The Filmore 1968-1969
DYEAR=2012
DGENRE=Blues
TTITLE0=Stronger Than Dirt (Live) (1969 Released 2008)
TTITLE1=If I Ever Get Lucky (Live) (1969 Released 2008)
TTITLE2=Born In Chicago (Live) (1969 Released 2008)
TTITLE3=Work Me Lord (Live) (1969 Released 2008)
TTITLE4=Wintry Country Side (Live) (1969)
TTITLE5=One Way Out (Live) (1968 Released 2003)
TTITLE6=Introduction Of Johnny Winter (Live) (1968 Released 2003)
TTITLE7=It's My Own Fault (Featuring Johnny Winter) (Live) (1968 Released 2003)
TTITLE8=Donn't Throw Your Love On Me So Strong (Live) (1968 Released 2003)
TTITLE9=Fat Grey Cloud (Live) (1968 Released 2003)
EXTD=
EXTT0=
EXTT1=
EXTT2=
EXTT3=
EXTT4=
EXTT5=
EXTT6=
EXTT7=
EXTT8=
EXTT9=
PLAYORDER=
